<svg width="43.333313" height="43.333252" viewBox="0 0 43.3333 43.3333" fill="none" xmlns="http://www.w3.org/2000/svg" xmlns:xlink="http://www.w3.org/1999/xlink">
	<desc>
			Created with Pixso.
	</desc>
	<defs/>
	<path id="Vector" d="M33.2367 7.49658C32.7224 7.49658 32.2197 7.64917 31.7922 7.93481C31.3646 8.22046 31.0314 8.62671 30.8346 9.10181C30.6378 9.57666 30.5863 10.0996 30.6866 10.604C30.7869 11.1082 31.0346 11.5715 31.3982 11.9351C31.7618 12.2988 32.2251 12.5464 32.7294 12.6467C33.2338 12.7471 33.7566 12.6956 34.2316 12.4988C34.7067 12.302 35.1128 11.9688 35.3985 11.5413C35.6842 11.1135 35.8367 10.6108 35.8367 10.0967C35.8367 9.40698 35.5627 8.74585 35.0751 8.2583C34.5875 7.77051 33.9262 7.49658 33.2367 7.49658ZM43.2034 12.74C43.1612 10.9424 42.8245 9.16382 42.2067 7.4751C41.6558 6.03003 40.7983 4.72168 39.6934 3.63989C38.6205 2.52954 37.3091 1.67749 35.8583 1.14844C34.1741 0.511719 32.3935 0.167236 30.5933 0.129883C28.2967 0 27.56 0 21.6667 0C15.7733 0 15.0367 0 12.74 0.129883C10.9398 0.167236 9.15924 0.511719 7.47498 1.14844C6.02698 1.68262 4.71667 2.53394 3.64001 3.63989C2.52942 4.71289 1.67737 6.02417 1.14832 7.4751C0.511658 9.15918 0.167297 10.9399 0.130005 12.74C0 15.0366 0 15.7734 0 21.6667C0 27.5601 0 28.2966 0.130005 30.5933C0.167297 32.3936 0.511658 34.1741 1.14832 35.8584C1.67737 37.3091 2.52942 38.6204 3.64001 39.6934C4.71667 40.7993 6.02698 41.6506 7.47498 42.1851C9.15924 42.8215 10.9398 43.166 12.74 43.2034C15.0367 43.3333 15.7733 43.3333 21.6667 43.3333C27.56 43.3333 28.2967 43.3333 30.5933 43.2034C32.3935 43.166 34.1741 42.8215 35.8583 42.1851C37.3091 41.656 38.6205 40.804 39.6934 39.6934C40.8032 38.6155 41.6614 37.3062 42.2067 35.8584C42.8245 34.1697 43.1612 32.3911 43.2034 30.5933C43.2034 28.2966 43.3333 27.5601 43.3333 21.6667C43.3333 15.7734 43.3333 15.0366 43.2034 12.74ZM39.3033 30.3333C39.2875 31.7087 39.0385 33.0713 38.5667 34.3633C38.2207 35.3062 37.6651 36.1582 36.9417 36.855C36.2389 37.571 35.3887 38.1255 34.45 38.48C33.158 38.9519 31.7953 39.2009 30.42 39.2166C28.2534 39.325 27.4517 39.3467 21.7534 39.3467C16.055 39.3467 15.2534 39.3467 13.0867 39.2166C11.6586 39.2434 10.2366 39.0234 8.88336 38.5667C7.98584 38.1941 7.17462 37.6411 6.5 36.9417C5.78088 36.2456 5.23218 35.3928 4.89667 34.45C4.36768 33.1394 4.07428 31.7458 4.03003 30.3333C4.03003 28.1667 3.90002 27.365 3.90002 21.6667C3.90002 15.9683 3.90002 15.1667 4.03003 13C4.03973 11.594 4.29639 10.2004 4.78833 8.8833C5.1698 7.96875 5.75525 7.15356 6.5 6.5C7.15826 5.75513 7.9718 5.16333 8.88336 4.7666C10.204 4.29004 11.596 4.04102 13 4.03003C15.1667 4.03003 15.9683 3.8999 21.6667 3.8999C27.365 3.8999 28.1667 3.8999 30.3333 4.03003C31.7087 4.04565 33.0714 4.29492 34.3633 4.7666C35.348 5.13208 36.2316 5.72607 36.9417 6.5C37.6517 7.16553 38.2065 7.97925 38.5667 8.8833C39.0482 10.2026 39.2975 11.5955 39.3033 13C39.4117 15.1667 39.4333 15.9683 39.4333 21.6667C39.4333 27.365 39.4117 28.1667 39.3033 30.3333ZM21.6667 10.5518C19.4692 10.5559 17.3224 11.2114 15.4974 12.4353C13.6724 13.6594 12.2512 15.3967 11.4132 17.4282C10.5753 19.4595 10.3582 21.6936 10.7896 23.8484C11.2209 26.0029 12.2812 27.9814 13.8365 29.5337C15.3918 31.0862 17.3724 32.1426 19.5279 32.5696C21.6833 32.9968 23.9171 32.7754 25.9468 31.9336C27.9766 31.0916 29.7112 29.667 30.9316 27.8396C32.152 26.0122 32.8033 23.864 32.8033 21.6667C32.8062 20.2043 32.52 18.7559 31.961 17.4048C31.4021 16.0535 30.5815 14.8262 29.5466 13.7932C28.5116 12.7603 27.2825 11.9419 25.9302 11.3857C24.5779 10.8293 23.1289 10.5459 21.6667 10.5518ZM21.6667 28.8816C20.2397 28.8816 18.8447 28.4585 17.6582 27.6658C16.4717 26.873 15.5469 25.7461 15.0009 24.4277C14.4548 23.1094 14.3119 21.6587 14.5903 20.259C14.8687 18.8596 15.5558 17.574 16.5649 16.5649C17.5739 15.5559 18.8595 14.8687 20.2591 14.5903C21.6587 14.312 23.1094 14.4548 24.4277 15.001C25.7461 15.5469 26.8729 16.4717 27.6657 17.6582C28.4585 18.8447 28.8817 20.2397 28.8817 21.6667C28.8817 22.6143 28.6951 23.5522 28.3325 24.4277C27.9698 25.303 27.4384 26.0984 26.7684 26.7686C26.0984 27.4385 25.3031 27.97 24.4277 28.3325C23.5524 28.6951 22.6141 28.8816 21.6667 28.8816Z" fill="#FFFFFF" fill-opacity="1.000000" fill-rule="nonzero"/>
</svg>
