<svg width="47.000000" height="40.000000" viewBox="0 0 47 40" fill="none" xmlns="http://www.w3.org/2000/svg" xmlns:xlink="http://www.w3.org/1999/xlink">
	<desc>
			Created with Pixso.
	</desc>
	<defs/>
	<path d="M12.9138 22.8572C15.3163 22.8572 17.2183 23.6592 18.6198 25.2632C20.1214 26.767 20.8722 28.772 20.8722 31.2782C20.8722 33.985 19.9713 36.1404 18.1693 37.7444C16.4675 39.2482 14.115 40 11.1118 40C7.60809 40 4.85516 38.6466 2.85303 35.9398C0.950989 33.233 0 29.3734 0 24.3608C0 19.8496 1.00104 15.6892 3.00317 11.8796C5.00531 7.96997 8.00854 4.06018 12.0128 0.150391C12.1129 0.0501709 12.2631 0 12.4633 0C12.7635 0 13.0139 0.150391 13.2141 0.451172C13.4142 0.751831 13.4142 1.00244 13.2141 1.203C8.30884 6.21558 5.8562 12.1304 5.8562 18.9474C5.8562 21.7544 6.35675 23.8096 7.35785 25.1128C8.25879 23.609 10.1108 22.8572 12.9138 22.8572ZM39.0415 22.8572C41.4441 22.8572 43.3461 23.6592 44.7476 25.2632C46.2492 26.767 47 28.772 47 31.2782C47 33.985 46.0991 36.1404 44.2971 37.7444C42.5953 39.2482 40.2428 40 37.2396 40C33.7359 40 30.983 38.6466 28.9808 35.9398C27.0788 33.233 26.1278 29.3734 26.1278 24.3608C26.1278 19.8496 27.1288 15.6892 29.131 11.8796C31.1331 7.96997 34.1363 4.06018 38.1406 0.150391C38.2407 0.0501709 38.3909 0 38.5911 0C38.8914 0 39.1417 0.150391 39.3419 0.451172C39.5421 0.751831 39.5421 1.00244 39.3419 1.203C34.4366 6.21558 31.984 12.1304 31.984 18.9474C31.984 21.7544 32.4846 23.8096 33.4856 25.1128C34.3866 23.609 36.2385 22.8572 39.0415 22.8572Z" fill="#FFFFFF" fill-opacity="1.000000" fill-rule="nonzero"/>
</svg>
