<svg width="40.000000" height="9.000000" viewBox="0 0 40 9" fill="none" xmlns="http://www.w3.org/2000/svg" xmlns:xlink="http://www.w3.org/1999/xlink">
	<desc>
			Created with Pixso.
	</desc>
	<defs>
		<clipPath id="clip509_79">
			<rect width="40.000000" height="9.000000" fill="white" fill-opacity="0"/>
		</clipPath>
	</defs>
	<g clip-path="url(#clip509_79)">
		<path d="M33.5016 9C37.0849 9 40 6.98145 40 4.5C40 2.01855 37.0849 0 33.5016 0C30.1122 0 27.3221 1.80615 27.03 4.10156L22.3529 4.10156L22.3529 3.15527L0 3.15527L0 5.84424L22.353 5.84424L22.353 4.89795L27.0302 4.89795C27.3223 7.19336 30.1122 9 33.5016 9ZM21.4898 5.04834L0.863297 5.04834L0.863297 3.95166L21.4898 3.95166L21.4898 5.04834ZM27.8662 4.5C27.8662 2.45801 30.3944 0.796387 33.5017 0.796387C36.6091 0.796387 39.1372 2.45801 39.1372 4.5C39.1372 6.54199 36.6091 8.20361 33.5017 8.20361C30.3944 8.20361 27.8662 6.54199 27.8662 4.5Z" fill="#DCCA87" fill-opacity="1.000000" fill-rule="nonzero"/>
	</g>
</svg>
