<svg width="24.000000" height="24.000000" viewBox="0 0 24 24" fill="none" xmlns="http://www.w3.org/2000/svg" xmlns:xlink="http://www.w3.org/1999/xlink">
	<desc>
			Created with Pixso.
	</desc>
	<defs>
		<clipPath id="clip566_1669">
			<rect id="u:twitter-alt" width="24.000000" height="24.000000" fill="white" fill-opacity="0"/>
		</clipPath>
	</defs>
	<rect id="u:twitter-alt" width="24.000000" height="24.000000" fill="#FFFFFF" fill-opacity="0"/>
	<g clip-path="url(#clip566_1669)">
		<path id="Vector" d="M22.9912 3.9502C22.9913 3.77344 22.9446 3.6001 22.8559 3.44727C22.7672 3.29443 22.6395 3.16797 22.486 3.08105C22.3325 2.99365 22.1585 2.94824 21.9819 2.9502C21.8052 2.95215 21.6323 3.00049 21.4805 3.09082C20.8952 3.43945 20.265 3.70605 19.6075 3.88379C18.6685 3.07812 17.4708 2.63721 16.2335 2.6416C14.876 2.64307 13.5724 3.17236 12.5977 4.11719C11.623 5.06201 11.0536 6.34863 11.0099 7.70508C8.33386 7.27832 5.90851 5.88184 4.19629 3.78125C4.09314 3.65625 3.96143 3.55762 3.81219 3.49414C3.66296 3.43066 3.50061 3.40381 3.33887 3.41602C3.17725 3.4292 3.0213 3.48193 2.88446 3.56885C2.74768 3.65625 2.63416 3.77539 2.55371 3.91602C2.14124 4.63574 1.90436 5.44287 1.8623 6.27148C1.82019 7.1001 1.97412 7.92676 2.31152 8.68457L2.30957 8.68652C2.15796 8.77979 2.03278 8.91064 1.94611 9.06641C1.85944 9.22168 1.81409 9.39697 1.81445 9.5752C1.81262 9.72217 1.82147 9.86914 1.84082 10.0146C1.94299 11.2729 2.50061 12.4507 3.40918 13.3271C3.34753 13.4443 3.30994 13.5732 3.29852 13.7051C3.28711 13.8374 3.30219 13.9702 3.34277 14.0967C3.73889 15.3306 4.5813 16.3726 5.70508 17.0186C4.56335 17.46 3.33051 17.6138 2.11523 17.4668C1.89032 17.4385 1.66248 17.4878 1.46912 17.606C1.2757 17.7241 1.1283 17.9048 1.05096 18.1177C0.973633 18.3311 0.971069 18.564 1.04364 18.7788C1.11615 18.9937 1.25952 19.1772 1.45026 19.2998C3.54034 20.646 5.97394 21.3618 8.46002 21.3613C11.2793 21.3931 14.03 20.4922 16.2842 18.7988C18.5385 17.1055 20.17 14.7144 20.9248 11.998C21.2779 10.8145 21.4581 9.58643 21.46 8.35156C21.46 8.28613 21.46 8.21875 21.459 8.15137C21.9811 7.58838 22.3856 6.92676 22.6487 6.20508C22.9118 5.48389 23.0283 4.71729 22.9912 3.9502ZM19.6846 7.16211C19.5194 7.35742 19.4359 7.60889 19.4512 7.86426C19.4609 8.0293 19.46 8.19531 19.46 8.35156C19.4579 9.39502 19.305 10.4331 19.0059 11.4326C18.3894 13.7441 17.015 15.7817 15.103 17.2192C13.1909 18.6567 10.8517 19.4111 8.46002 19.3613C7.60089 19.3618 6.74475 19.2607 5.90924 19.0605C6.97467 18.7173 7.97083 18.188 8.85162 17.4971C9.01385 17.3691 9.13257 17.1943 9.19153 16.9966C9.25043 16.7988 9.2467 16.5874 9.18079 16.3916C9.11487 16.1963 8.99005 16.0259 8.82343 15.9038C8.65674 15.7817 8.45648 15.7144 8.25 15.7109C7.41882 15.6982 6.62512 15.3628 6.03613 14.7764C6.18555 14.748 6.33398 14.7129 6.48145 14.6709C6.69751 14.6094 6.88654 14.4771 7.01813 14.2949C7.14972 14.1133 7.21631 13.8921 7.20703 13.6675C7.19781 13.4434 7.11328 13.2285 6.96716 13.0581C6.82098 12.8872 6.6217 12.771 6.40137 12.7275C5.91895 12.6323 5.46497 12.4272 5.07471 12.1279C4.68445 11.8286 4.36853 11.4434 4.15137 11.002C4.33209 11.0269 4.51398 11.042 4.69629 11.0479C4.9129 11.0513 5.12488 10.9854 5.3017 10.8604C5.47845 10.7349 5.61084 10.5571 5.67969 10.3516C5.74567 10.1445 5.74231 9.92139 5.67004 9.71631C5.59778 9.51074 5.46063 9.33496 5.2793 9.21484C4.83948 8.92188 4.47919 8.52441 4.23065 8.05762C3.98218 7.59131 3.85327 7.07031 3.85547 6.54199C3.85547 6.47559 3.85742 6.40918 3.86133 6.34375C6.1026 8.43408 9.00964 9.66602 12.0704 9.82324C12.2249 9.8291 12.3787 9.80029 12.5203 9.73828C12.6619 9.67627 12.7875 9.58252 12.8878 9.46484C12.9869 9.34619 13.0571 9.20557 13.0929 9.05518C13.1287 8.9043 13.1289 8.74756 13.0938 8.59668C13.0366 8.35791 13.0074 8.11377 13.0068 7.86816C13.0078 7.0127 13.348 6.19238 13.9529 5.5874C14.5578 4.98291 15.3779 4.64258 16.2334 4.6416C16.6736 4.64062 17.1091 4.73047 17.5127 4.90625C17.9163 5.08203 18.2791 5.33936 18.5781 5.66211C18.6935 5.78613 18.8386 5.87891 18.9998 5.93066C19.161 5.98291 19.3329 5.99316 19.499 5.95996C19.9098 5.87988 20.3147 5.77246 20.7109 5.6377C20.4407 6.19092 20.0953 6.70361 19.6846 7.16211Z" fill="#F5EFDB" fill-opacity="1.000000" fill-rule="nonzero"/>
	</g>
</svg>
